<svg width="48" height="40" viewBox="0 0 48 40" fill="none" xmlns="http://www.w3.org/2000/svg">
<path d="M34.5833 21.701H33.4122L29.9678 25.1008H33.2572L36.3056 28.5006H12.1944L15.26 25.1008H18.7906L15.3461 21.701H13.9167L8.75 26.8007V33.6002C8.75 34.5019 9.1129 35.3666 9.75885 36.0042C10.4048 36.6418 11.2809 37 12.1944 37H36.3056C37.2191 37 38.0952 36.6418 38.7411 36.0042C39.3871 35.3666 39.75 34.5019 39.75 33.6002V26.8007L34.5833 21.701ZM32.8611 13.1166L24.3361 21.531L18.2222 15.5134L26.7644 7.09901L32.8611 13.1166ZM25.5589 3.49525L14.5883 14.3235C14.4287 14.4808 14.302 14.6676 14.2156 14.8732C14.1292 15.0789 14.0847 15.2993 14.0847 15.5219C14.0847 15.7446 14.1292 15.965 14.2156 16.1707C14.302 16.3763 14.4287 16.5631 14.5883 16.7204L23.1133 25.1008C23.785 25.7978 24.87 25.7978 25.5417 25.1008L36.495 14.3235C36.6547 14.1663 36.7813 13.9795 36.8677 13.7738C36.9542 13.5682 36.9987 13.3477 36.9987 13.1251C36.9987 12.9025 36.9542 12.682 36.8677 12.4764C36.7813 12.2707 36.6547 12.0839 36.495 11.9267L27.97 3.51225C27.8146 3.35178 27.6282 3.22376 27.4217 3.13577C27.2152 3.04778 26.993 3.00163 26.7681 3.00004C26.5432 2.99846 26.3203 3.04147 26.1126 3.12654C25.9049 3.21161 25.7166 3.33699 25.5589 3.49525Z" fill="#666666"/>
</svg>
