<svg width="57" height="36" viewBox="0 0 57 36" fill="none" xmlns="http://www.w3.org/2000/svg">
<path d="M10.3125 6.1875C10.3125 5.14321 10.7273 4.14169 11.4658 3.40327C12.2042 2.66484 13.2057 2.25 14.25 2.25C15.2943 2.25 16.2958 2.66484 17.0342 3.40327C17.7727 4.14169 18.1875 5.14321 18.1875 6.1875C18.1875 7.23179 17.7727 8.23331 17.0342 8.97173C16.2958 9.71016 15.2943 10.125 14.25 10.125C13.2057 10.125 12.2042 9.71016 11.4658 8.97173C10.7273 8.23331 10.3125 7.23179 10.3125 6.1875ZM9.75 17.2758C9.04688 18.0633 8.625 19.1109 8.625 20.25C8.625 21.3891 9.04688 22.4367 9.75 23.2242V17.2688V17.2758ZM19.9031 13.8094C17.8148 15.6586 16.5 18.3656 16.5 21.375C16.5 23.7867 17.3438 26.0016 18.75 27.7383V29.25C18.75 30.4945 17.7445 31.5 16.5 31.5H12C10.7555 31.5 9.75 30.4945 9.75 29.25V27.3656C7.09219 26.1 5.25 23.393 5.25 20.25C5.25 15.8977 8.77266 12.375 13.125 12.375H15.375C17.0625 12.375 18.6234 12.9023 19.9031 13.8023V13.8094ZM36.75 29.25V27.7383C38.1562 26.0016 39 23.7867 39 21.375C39 18.3656 37.6852 15.6586 35.5969 13.8023C36.8766 12.9023 38.4375 12.375 40.125 12.375H42.375C46.7273 12.375 50.25 15.8977 50.25 20.25C50.25 23.393 48.4078 26.1 45.75 27.3656V29.25C45.75 30.4945 44.7445 31.5 43.5 31.5H39C37.7555 31.5 36.75 30.4945 36.75 29.25ZM37.3125 6.1875C37.3125 5.14321 37.7273 4.14169 38.4658 3.40327C39.2042 2.66484 40.2057 2.25 41.25 2.25C42.2943 2.25 43.2958 2.66484 44.0342 3.40327C44.7727 4.14169 45.1875 5.14321 45.1875 6.1875C45.1875 7.23179 44.7727 8.23331 44.0342 8.97173C43.2958 9.71016 42.2943 10.125 41.25 10.125C40.2057 10.125 39.2042 9.71016 38.4658 8.97173C37.7273 8.23331 37.3125 7.23179 37.3125 6.1875ZM45.75 17.2758V23.2312C46.4531 22.4367 46.875 21.3961 46.875 20.257C46.875 19.118 46.4531 18.0703 45.75 17.2828V17.2758ZM27.75 2.25C28.9435 2.25 30.0881 2.72411 30.932 3.56802C31.7759 4.41193 32.25 5.55653 32.25 6.75C32.25 7.94347 31.7759 9.08807 30.932 9.93198C30.0881 10.7759 28.9435 11.25 27.75 11.25C26.5565 11.25 25.4119 10.7759 24.568 9.93198C23.7241 9.08807 23.25 7.94347 23.25 6.75C23.25 5.55653 23.7241 4.41193 24.568 3.56802C25.4119 2.72411 26.5565 2.25 27.75 2.25ZM22.125 21.375C22.125 22.5141 22.5469 23.5547 23.25 24.3492V18.3938C22.5469 19.1883 22.125 20.2289 22.125 21.368V21.375ZM32.25 18.4008V24.3562C32.9531 23.5617 33.375 22.5211 33.375 21.382C33.375 20.243 32.9531 19.1953 32.25 18.4078V18.4008ZM36.75 21.375C36.75 24.518 34.9078 27.225 32.25 28.4906V31.5C32.25 32.7445 31.2445 33.75 30 33.75H25.5C24.2555 33.75 23.25 32.7445 23.25 31.5V28.4906C20.5922 27.225 18.75 24.518 18.75 21.375C18.75 17.0227 22.2727 13.5 26.625 13.5H28.875C33.2273 13.5 36.75 17.0227 36.75 21.375Z" fill="#666666"/>
</svg>
